<svg width="48" height="48" viewBox="0 0 48 48" fill="none" xmlns="http://www.w3.org/2000/svg">
<path opacity="0.8" d="M39.6071 9.99608C39.1356 9.52457 38.6641 9.05306 38.1926 8.58155C36.7781 7.0727 35.2692 5.56387 33.3832 4.62084C31.2142 3.48921 28.8567 3.77211 26.4991 3.77211C22.9156 3.77211 13.9568 3.77211 8.6759 3.77211L12.2594 8.58155C18.7663 8.58155 28.951 8.58155 33.6661 8.58155C35.6464 8.58155 37.3439 8.95876 38.947 9.99608C39.2299 10.0904 39.5128 10.0904 39.6071 9.99608Z" fill="white"/>
<path opacity="0.9" d="M43.5678 17.7291C43.0963 17.2576 42.6248 16.7861 42.1533 16.3146C40.7388 14.8057 39.2299 13.2969 37.3439 12.3539C35.1749 11.2222 32.8173 11.5052 30.4598 11.5052C27.3478 11.5052 19.8979 11.5052 14.6169 11.5052L18.2004 16.3146C24.613 16.3146 33.3832 16.3146 37.7211 16.3146C39.7014 16.3146 41.3989 16.6918 43.002 17.7291C43.1906 17.8234 43.3792 17.8234 43.5678 17.7291Z" fill="white"/>
<path d="M48 25.2731C47.5285 24.8016 47.057 24.3301 46.5855 23.8585C45.1709 22.3497 43.6621 20.8408 41.7761 19.8978C39.6071 18.7662 37.2495 19.0491 34.892 19.0491C31.9686 19.0491 25.556 19.0491 20.3694 19.0491L23.9529 23.8585C30.1768 23.8585 38.0983 23.8585 42.059 23.8585C44.0393 23.8585 45.7368 24.2358 47.3399 25.2731C47.6228 25.3674 47.8114 25.4617 48 25.2731Z" fill="white"/>
<path opacity="0.8" d="M8.29871 38.0038C8.77022 38.4753 9.24173 38.9468 9.71324 39.4183C11.1278 40.9272 12.6366 42.436 14.5227 43.379C16.6916 44.5106 19.0492 44.2277 21.4068 44.2277H39.2299L35.6465 39.4183C29.1396 39.4183 18.9549 39.4183 14.2398 39.4183C12.2594 39.4183 10.562 39.0411 8.95882 38.0038C8.67591 37.9095 8.48731 37.9095 8.29871 38.0038Z" fill="white"/>
<path opacity="0.9" d="M4.33813 30.2713C4.80965 30.7428 5.28116 31.2143 5.75267 31.6858C7.16721 33.1947 8.67604 34.7035 10.5621 35.6465C12.7311 36.7782 15.0886 36.4952 17.4462 36.4952H33.289L29.7055 31.6858C23.2929 31.6858 14.5228 31.6858 10.1849 31.6858C8.20454 31.6858 6.50709 31.3086 4.90394 30.2713C4.71534 30.177 4.52674 30.177 4.33813 30.2713Z" fill="white"/>
<path d="M0 22.6325C0.471513 23.104 0.943026 23.5755 1.41454 24.0471C2.82908 25.5559 4.33792 27.0647 6.22398 28.0078C8.39293 29.1394 10.7505 28.8565 13.1081 28.8565H27.6307L24.0472 24.0471C17.8232 24.0471 9.90177 24.0471 5.94106 24.0471C3.96071 24.0471 2.26326 23.6698 0.660115 22.6325C0.377207 22.5382 0.188605 22.5382 0 22.6325Z" fill="white"/>
</svg>
