<svg width="48" height="48" viewBox="0 0 48 48" fill="none" xmlns="http://www.w3.org/2000/svg">
<g id="Logomark">
<path id="Shape" opacity="0.8" d="M39.6071 9.99613C39.1356 9.52462 38.6641 9.0531 38.1926 8.58159C36.7781 7.07275 35.2692 5.56391 33.3832 4.62089C31.2142 3.48926 28.8567 3.77215 26.4991 3.77215C22.9156 3.77215 13.9568 3.77215 8.6759 3.77215L12.2594 8.58159C18.7663 8.58159 28.951 8.58159 33.6661 8.58159C35.6464 8.58159 37.3439 8.9588 38.947 9.99613C39.2299 10.0904 39.5128 10.0904 39.6071 9.99613Z" fill="white"/>
<path id="Shape_2" opacity="0.9" d="M43.5679 17.729C43.0964 17.2575 42.6249 16.786 42.1534 16.3145C40.7388 14.8056 39.23 13.2968 37.3439 12.3538C35.175 11.2222 32.8174 11.5051 30.4598 11.5051C27.3479 11.5051 19.8979 11.5051 14.617 11.5051L18.2005 16.3145C24.6131 16.3145 33.3832 16.3145 37.7211 16.3145C39.7015 16.3145 41.3989 16.6917 43.0021 17.729C43.1907 17.8233 43.3793 17.8233 43.5679 17.729Z" fill="white"/>
<path id="Shape_3" d="M48 25.273C47.5285 24.8015 47.0569 24.33 46.5854 23.8584C45.1709 22.3496 43.6621 20.8408 41.776 19.8977C39.607 18.7661 37.2495 19.049 34.8919 19.049C31.9685 19.049 25.556 19.049 20.3693 19.049L23.9528 23.8584C30.1768 23.8584 38.0982 23.8584 42.0589 23.8584C44.0393 23.8584 45.7367 24.2357 47.3398 25.273C47.6228 25.3673 47.8114 25.4616 48 25.273Z" fill="white"/>
<path id="Shape_4" opacity="0.8" d="M8.29871 38.0038C8.77022 38.4753 9.24173 38.9469 9.71324 39.4184C11.1278 40.9272 12.6366 42.436 14.5227 43.3791C16.6916 44.5107 19.0492 44.2278 21.4068 44.2278H39.2299L35.6465 39.4184C29.1396 39.4184 18.9549 39.4184 14.2398 39.4184C12.2594 39.4184 10.562 39.0412 8.95882 38.0038C8.67591 37.9095 8.48731 37.9095 8.29871 38.0038Z" fill="white"/>
<path id="Shape_5" opacity="0.9" d="M4.33807 30.2712C4.80959 30.7427 5.2811 31.2142 5.75261 31.6857C7.16715 33.1945 8.67598 34.7034 10.562 35.6464C12.731 36.7781 15.0886 36.4951 17.4461 36.4951H33.289L29.7055 31.6857C23.2929 31.6857 14.5227 31.6857 10.1848 31.6857C8.20448 31.6857 6.50702 31.3085 4.90388 30.2712C4.71528 30.1769 4.52668 30.1769 4.33807 30.2712Z" fill="white"/>
<path id="Shape_6" d="M0 22.6325C0.471513 23.104 0.943026 23.5755 1.41454 24.047C2.82908 25.5559 4.33792 27.0647 6.22398 28.0078C8.39293 29.1394 10.7505 28.8565 13.1081 28.8565H27.6307L24.0472 24.047C17.8232 24.047 9.90177 24.047 5.94106 24.047C3.96071 24.047 2.26326 23.6698 0.660115 22.6325C0.377207 22.5382 0.188605 22.5382 0 22.6325Z" fill="white"/>
</g>
</svg>
